BenchTwelve-Regular.ufo
<glyph name="percent" format="1">
  <advance width="2644"/>
  <unicode hex="0025"/>
  <outline>
    <contour>
      <point x="952" y="-82" type="line" smooth="yes"/>
      <point x="923" y="-82"/>
      <point x="901" y="-59"/>
      <point x="901" y="-33" type="curve" smooth="yes"/>
      <point x="901" y="-26"/>
      <point x="903" y="-19"/>
      <point x="906" y="-12" type="curve" smooth="yes"/>
      <point x="1561" y="1466" type="line" smooth="yes"/>
      <point x="1579" y="1508"/>
      <point x="1623" y="1536"/>
      <point x="1669" y="1536" type="curve" smooth="yes"/>
      <point x="1697" y="1536" type="line" smooth="yes"/>
      <point x="1726" y="1536"/>
      <point x="1748" y="1513"/>
      <point x="1748" y="1487" type="curve" smooth="yes"/>
      <point x="1748" y="1480"/>
      <point x="1746" y="1473"/>
      <point x="1743" y="1466" type="curve" smooth="yes"/>
      <point x="1089" y="-12" type="line" smooth="yes"/>
      <point x="1070" y="-54"/>
      <point x="1027" y="-82"/>
      <point x="981" y="-82" type="curve" smooth="yes"/>
    </contour>
    <contour>
      <point x="576" y="762" type="curve" smooth="yes"/>
      <point x="753" y="762"/>
      <point x="846" y="876"/>
      <point x="846" y="1060" type="curve" smooth="yes"/>
      <point x="846" y="1248"/>
      <point x="758" y="1358"/>
      <point x="576" y="1358" type="curve" smooth="yes"/>
      <point x="403" y="1358"/>
      <point x="305" y="1248"/>
      <point x="305" y="1060" type="curve" smooth="yes"/>
      <point x="305" y="876"/>
      <point x="409" y="762"/>
    </contour>
    <contour>
      <point x="576" y="623" type="curve" smooth="yes"/>
      <point x="279" y="623"/>
      <point x="127" y="819"/>
      <point x="127" y="1057" type="curve" smooth="yes"/>
      <point x="127" y="1293"/>
      <point x="275" y="1497"/>
      <point x="576" y="1497" type="curve" smooth="yes"/>
      <point x="877" y="1497"/>
      <point x="1024" y="1293"/>
      <point x="1024" y="1057" type="curve" smooth="yes"/>
      <point x="1024" y="819"/>
      <point x="873" y="623"/>
    </contour>
    <contour>
      <point x="2067" y="141" type="curve" smooth="yes"/>
      <point x="2243" y="141"/>
      <point x="2337" y="255"/>
      <point x="2337" y="439" type="curve" smooth="yes"/>
      <point x="2337" y="627"/>
      <point x="2249" y="737"/>
      <point x="2067" y="737" type="curve" smooth="yes"/>
      <point x="1894" y="737"/>
      <point x="1796" y="627"/>
      <point x="1796" y="439" type="curve" smooth="yes"/>
      <point x="1796" y="255"/>
      <point x="1899" y="141"/>
    </contour>
    <contour>
      <point x="2067" y="2" type="curve" smooth="yes"/>
      <point x="1770" y="2"/>
      <point x="1618" y="198"/>
      <point x="1618" y="436" type="curve" smooth="yes"/>
      <point x="1618" y="672"/>
      <point x="1766" y="876"/>
      <point x="2067" y="876" type="curve" smooth="yes"/>
      <point x="2368" y="876"/>
      <point x="2515" y="672"/>
      <point x="2515" y="436" type="curve" smooth="yes"/>
      <point x="2515" y="198"/>
      <point x="2364" y="2"/>
    </contour>
  </outline>
</glyph>
<glyph name="quotesingle" format="1">
  <advance width="501"/>
  <unicode hex="0027"/>
  <outline>
    <contour>
      <point x="253" y="774" type="line" smooth="yes"/>
      <point x="210" y="774"/>
      <point x="213" y="798"/>
      <point x="207" y="841" type="curve" smooth="yes"/>
      <point x="141" y="1348" type="line" smooth="yes"/>
      <point x="140" y="1352"/>
      <point x="140" y="1357"/>
      <point x="140" y="1361" type="curve" smooth="yes"/>
      <point x="140" y="1400"/>
      <point x="168" y="1436"/>
      <point x="207" y="1436" type="curve" smooth="yes"/>
      <point x="294" y="1436" type="line" smooth="yes"/>
      <point x="334" y="1436"/>
      <point x="362" y="1397"/>
      <point x="362" y="1357" type="curve" smooth="yes"/>
      <point x="362" y="1354"/>
      <point x="361" y="1350"/>
      <point x="361" y="1347" type="curve" smooth="yes"/>
      <point x="302" y="841" type="line" smooth="yes"/>
      <point x="297" y="798"/>
      <point x="299" y="774"/>
      <point x="256" y="774" type="curve" smooth="yes"/>
    </contour>
  </outline>
</glyph>
<glyph name="parenleft" format="1">
  <advance width="839"/>
  <unicode hex="0028"/>
  <outline>
    <contour>
      <point x="649" y="-143" type="curve" smooth="yes"/>
      <point x="274" y="-30"/>
      <point x="140" y="299"/>
      <point x="140" y="699" type="curve" smooth="yes"/>
      <point x="140" y="1100"/>
      <point x="294" y="1438"/>
      <point x="649" y="1540" type="curve" smooth="yes"/>
      <point x="653" y="1541"/>
      <point x="658" y="1542"/>
      <point x="662" y="1542" type="curve" smooth="yes"/>
      <point x="696" y="1542"/>
      <point x="726" y="1504"/>
      <point x="726" y="1470" type="curve" smooth="yes"/>
      <point x="726" y="1452" type="line" smooth="yes"/>
      <point x="726" y="1383"/>
      <point x="682" y="1388"/>
      <point x="620" y="1352" type="curve" smooth="yes"/>
      <point x="476" y="1270"/>
      <point x="359" y="1096"/>
      <point x="359" y="699" type="curve" smooth="yes"/>
      <point x="359" y="292"/>
      <point x="446" y="157"/>
      <point x="620" y="43" type="curve" smooth="yes"/>
      <point x="677" y="6"/>
      <point x="726" y="12"/>
      <point x="726" y="-57" type="curve" smooth="yes"/>
      <point x="726" y="-73" type="line" smooth="yes"/>
      <point x="726" y="-107"/>
      <point x="696" y="-145"/>
      <point x="662" y="-145" type="curve" smooth="yes"/>
      <point x="658" y="-145"/>
      <point x="653" y="-144"/>
    </contour>
  </outline>
</glyph>
<glyph name="plus" format="1">
  <advance width="1201"/>
  <unicode hex="002B"/>
  <outline>
    <contour>
      <point x="562" y="18" type="line" smooth="yes"/>
      <point x="519" y="18"/>
      <point x="505" y="42"/>
      <point x="505" y="85" type="curve" smooth="yes"/>
      <point x="505" y="409" type="line" smooth="yes"/>
      <point x="505" y="429"/>
      <point x="499" y="446"/>
      <point x="479" y="446" type="curve" smooth="yes"/>
      <point x="177" y="446" type="line" smooth="yes"/>
      <point x="134" y="446"/>
      <point x="121" y="460"/>
      <point x="121" y="503" type="curve" smooth="yes"/>
      <point x="121" y="582" type="line" smooth="yes"/>
      <point x="121" y="625"/>
      <point x="134" y="638"/>
      <point x="177" y="638" type="curve" smooth="yes"/>
      <point x="479" y="638" type="line" smooth="yes"/>
      <point x="499" y="638"/>
      <point x="505" y="654"/>
      <point x="505" y="674" type="curve" smooth="yes"/>
      <point x="505" y="1010" type="line" smooth="yes"/>
      <point x="505" y="1053"/>
      <point x="519" y="1077"/>
      <point x="562" y="1077" type="curve" smooth="yes"/>
      <point x="638" y="1077" type="line" smooth="yes"/>
      <point x="681" y="1077"/>
      <point x="694" y="1053"/>
      <point x="694" y="1010" type="curve" smooth="yes"/>
      <point x="694" y="674" type="line" smooth="yes"/>
      <point x="694" y="654"/>
      <point x="701" y="638"/>
      <point x="721" y="638" type="curve" smooth="yes"/>
      <point x="1022" y="638" type="line" smooth="yes"/>
      <point x="1065" y="638"/>
      <point x="1079" y="625"/>
      <point x="1079" y="582" type="curve" smooth="yes"/>
      <point x="1079" y="503" type="line" smooth="yes"/>
      <point x="1079" y="460"/>
      <point x="1065" y="446"/>
      <point x="1022" y="446" type="curve" smooth="yes"/>
      <point x="721" y="446" type="line" smooth="yes"/>
      <point x="701" y="446"/>
      <point x="694" y="429"/>
      <point x="694" y="409" type="curve" smooth="yes"/>
      <point x="694" y="85" type="line" smooth="yes"/>
      <point x="694" y="42"/>
      <point x="681" y="18"/>
      <point x="638" y="18" type="curve" smooth="yes"/>
    </contour>
  </outline>
</glyph>
<glyph name="three" format="1">
  <advance width="1952"/>
  <unicode hex="0033"/>
  <outline>
    <contour>
      <point x="1003" y="-40" type="curve" smooth="yes"/>
      <point x="807" y="-40"/>
      <point x="303" y="29"/>
      <point x="191" y="62" type="curve" smooth="yes"/>
      <point x="154" y="72"/>
      <point x="138" y="89"/>
      <point x="138" y="119" type="curve" smooth="yes"/>
      <point x="138" y="123"/>
      <point x="138" y="127"/>
      <point x="139" y="132" type="curve" smooth="yes"/>
      <point x="143" y="187" type="line"/>
      <point x="147" y="218"/>
      <point x="161" y="231"/>
      <point x="187" y="231" type="curve" smooth="yes"/>
      <point x="194" y="231"/>
      <point x="201" y="230"/>
      <point x="210" y="228" type="curve" smooth="yes"/>
      <point x="249" y="221"/>
      <point x="679" y="131"/>
      <point x="1013" y="131" type="curve" smooth="yes"/>
      <point x="1512.84" y="131"/>
      <point x="1595" y="268.291"/>
      <point x="1595" y="396" type="curve" smooth="yes"/>
      <point x="1595" y="523"/>
      <point x="1489" y="643"/>
      <point x="1115" y="643" type="curve" smooth="yes"/>
      <point x="879" y="643" type="line" smooth="yes"/>
      <point x="847" y="643"/>
      <point x="847" y="672"/>
      <point x="847" y="686" type="curve" smooth="yes"/>
      <point x="847" y="768" type="line" smooth="yes"/>
      <point x="847" y="782"/>
      <point x="847" y="811"/>
      <point x="879" y="811" type="curve" smooth="yes"/>
      <point x="1115" y="811" type="line" smooth="yes"/>
      <point x="1491" y="811"/>
      <point x="1573" y="933"/>
      <point x="1573" y="1056" type="curve" smooth="yes"/>
      <point x="1573" y="1242.6"/>
      <point x="1407.62" y="1303"/>
      <point x="1042" y="1303" type="curve" smooth="yes"/>
      <point x="671" y="1303"/>
      <point x="263" y="1211"/>
      <point x="224" y="1204" type="curve" smooth="yes"/>
      <point x="215" y="1202"/>
      <point x="207" y="1201"/>
      <point x="200" y="1201" type="curve" smooth="yes"/>
      <point x="174" y="1201"/>
      <point x="153" y="1214"/>
      <point x="149" y="1245" type="curve"/>
      <point x="139" y="1298" type="line" smooth="yes"/>
      <point x="138" y="1303"/>
      <point x="138" y="1307"/>
      <point x="138" y="1311" type="curve" smooth="yes"/>
      <point x="138" y="1341"/>
      <point x="154" y="1358"/>
      <point x="191" y="1368" type="curve" smooth="yes"/>
      <point x="303" y="1401"/>
      <point x="795" y="1474"/>
      <point x="1036" y="1474" type="curve" smooth="yes"/>
      <point x="1641" y="1474"/>
      <point x="1785" y="1287"/>
      <point x="1785" y="1048" type="curve" smooth="yes"/>
      <point x="1785" y="870"/>
      <point x="1674" y="743"/>
      <point x="1474" y="723" type="curve"/>
      <point x="1683" y="697"/>
      <point x="1809" y="564"/>
      <point x="1809" y="386" type="curve" smooth="yes"/>
      <point x="1809" y="137"/>
      <point x="1608" y="-40"/>
    </contour>
  </outline>
</glyph>
<glyph name="seven" format="1">
  <advance width="1055"/>
  <unicode hex="0037"/>
  <outline>
    <contour>
      <point x="391" y="0" type="line" smooth="yes"/>
      <point x="354" y="0"/>
      <point x="321" y="19"/>
      <point x="321" y="51" type="curve" smooth="yes"/>
      <point x="321" y="56"/>
      <point x="322" y="61"/>
      <point x="324" y="67" type="curve" smooth="yes"/>
      <point x="684" y="1241" type="line" smooth="yes"/>
      <point x="690" y="1260"/>
      <point x="677" y="1274"/>
      <point x="657" y="1274" type="curve" smooth="yes"/>
      <point x="153" y="1274" type="line" smooth="yes"/>
      <point x="110" y="1274"/>
      <point x="86" y="1298"/>
      <point x="86" y="1341" type="curve" smooth="yes"/>
      <point x="86" y="1371" type="line" smooth="yes"/>
      <point x="86" y="1414"/>
      <point x="110" y="1438"/>
      <point x="153" y="1438" type="curve" smooth="yes"/>
      <point x="882" y="1438" type="line" smooth="yes"/>
      <point x="925" y="1438"/>
      <point x="949" y="1414"/>
      <point x="949" y="1371" type="curve"/>
      <point x="539" y="67" type="line" smooth="yes"/>
      <point x="526" y="26"/>
      <point x="516" y="0"/>
      <point x="473" y="0" type="curve" smooth="yes"/>
    </contour>
  </outline>
</glyph>
<glyph name="equal" format="1">
  <advance width="927"/>
  <unicode hex="003D"/>
  <outline>
    <contour>
      <point x="193" y="314" type="line" smooth="yes"/>
      <point x="150" y="314"/>
      <point x="137" y="328"/>
      <point x="137" y="371" type="curve" smooth="yes"/>
      <point x="137" y="414" type="line" smooth="yes"/>
      <point x="137" y="457"/>
      <point x="150" y="470"/>
      <point x="193" y="470" type="curve" smooth="yes"/>
      <point x="733" y="470" type="line" smooth="yes"/>
      <point x="776" y="470"/>
      <point x="790" y="457"/>
      <point x="790" y="414" type="curve" smooth="yes"/>
      <point x="790" y="371" type="line" smooth="yes"/>
      <point x="790" y="328"/>
      <point x="776" y="314"/>
      <point x="733" y="314" type="curve" smooth="yes"/>
    </contour>
    <contour>
      <point x="193" y="617" type="line" smooth="yes"/>
      <point x="150" y="617"/>
      <point x="137" y="630"/>
      <point x="137" y="673" type="curve" smooth="yes"/>
      <point x="137" y="716" type="line" smooth="yes"/>
      <point x="137" y="759"/>
      <point x="150" y="772"/>
      <point x="193" y="772" type="curve" smooth="yes"/>
      <point x="733" y="772" type="line" smooth="yes"/>
      <point x="776" y="772"/>
      <point x="790" y="759"/>
      <point x="790" y="716" type="curve" smooth="yes"/>
      <point x="790" y="673" type="line" smooth="yes"/>
      <point x="790" y="630"/>
      <point x="776" y="617"/>
      <point x="733" y="617" type="curve" smooth="yes"/>
    </contour>
  </outline>
</glyph>
<glyph name="A" format="1">
  <advance width="1871"/>
  <unicode hex="0041"/>
  <outline>
    <contour>
      <point x="149" y="0" type="line" smooth="yes"/>
      <point x="120" y="0"/>
      <point x="104" y="11"/>
      <point x="104" y="32" type="curve" smooth="yes"/>
      <point x="104" y="42"/>
      <point x="107" y="53"/>
      <point x="114" y="67" type="curve" smooth="yes"/>
      <point x="806" y="1371" type="line"/>
      <point x="826" y="1412"/>
      <point x="858" y="1435"/>
      <point x="898" y="1438" type="curve"/>
      <point x="1010" y="1438" type="line"/>
      <point x="1050" y="1435"/>
      <point x="1083" y="1412"/>
      <point x="1104" y="1371" type="curve" smooth="yes"/>
      <point x="1753" y="67" type="line" smooth="yes"/>
      <point x="1760" y="53"/>
      <point x="1764" y="41"/>
      <point x="1764" y="31" type="curve" smooth="yes"/>
      <point x="1764" y="11"/>
      <point x="1749" y="0"/>
      <point x="1720" y="0" type="curve" smooth="yes"/>
      <point x="1625" y="0" type="line" smooth="yes"/>
      <point x="1582" y="0"/>
      <point x="1544" y="23"/>
      <point x="1524" y="67" type="curve" smooth="yes"/>
      <point x="1397" y="337" type="line"/>
      <point x="1390" y="342" type="line"/>
      <point x="489" y="342" type="line"/>
      <point x="481" y="336" type="line"/>
      <point x="346" y="67" type="line"/>
      <point x="326" y="24"/>
      <point x="290" y="0"/>
      <point x="247" y="0" type="curve" smooth="yes"/>
    </contour>
    <contour>
      <point x="555" y="471" type="curve" smooth="yes"/>
      <point x="1330" y="471" type="line" smooth="yes"/>
      <point x="1334" y="471"/>
      <point x="1335" y="472"/>
      <point x="1335" y="474" type="curve" smooth="yes"/>
      <point x="1335" y="476"/>
      <point x="1334" y="478"/>
      <point x="1333" y="479" type="curve" smooth="yes"/>
      <point x="955" y="1268" type="line" smooth="yes"/>
      <point x="954" y="1269"/>
      <point x="954" y="1270"/>
      <point x="953" y="1270" type="curve" smooth="yes"/>
      <point x="952" y="1270"/>
      <point x="952" y="1268"/>
      <point x="951" y="1268" type="curve" smooth="yes"/>
      <point x="549" y="478" type="line" smooth="yes"/>
      <point x="549" y="477"/>
      <point x="548" y="476"/>
      <point x="548" y="475" type="curve" smooth="yes"/>
      <point x="548" y="473"/>
      <point x="550" y="471"/>
    </contour>
  </outline>
</glyph>
<glyph name="M" format="1">
  <advance width="2412"/>
  <unicode hex="004D"/>
  <outline>
    <contour>
      <point x="208" y="0" type="line" smooth="yes"/>
      <point x="167" y="0"/>
      <point x="145" y="22"/>
      <point x="145" y="60" type="curve" smooth="yes"/>
      <point x="145" y="67" type="line" smooth="yes"/>
      <point x="261" y="1371" type="line" smooth="yes"/>
      <point x="264" y="1412"/>
      <point x="286" y="1435"/>
      <point x="324" y="1438" type="curve"/>
      <point x="417" y="1438" type="line"/>
      <point x="457" y="1435"/>
      <point x="492" y="1412"/>
      <point x="516" y="1371" type="curve" smooth="yes"/>
      <point x="1187" y="200" type="line" smooth="yes"/>
      <point x="1187" y="201"/>
      <point x="1208" y="201"/>
      <point x="1208" y="200" type="curve" smooth="yes"/>
      <point x="1900" y="1371" type="line" smooth="yes"/>
      <point x="1924" y="1412"/>
      <point x="1960" y="1435"/>
      <point x="2000" y="1438" type="curve"/>
      <point x="2092" y="1438" type="line"/>
      <point x="2131" y="1435"/>
      <point x="2154" y="1412"/>
      <point x="2157" y="1371" type="curve" smooth="yes"/>
      <point x="2266" y="67" type="line" smooth="yes"/>
      <point x="2266" y="59" type="line" smooth="yes"/>
      <point x="2266" y="21"/>
      <point x="2244" y="0"/>
      <point x="2204" y="0" type="curve" smooth="yes"/>
      <point x="2121" y="0" type="line" smooth="yes"/>
      <point x="2078" y="0"/>
      <point x="2052" y="24"/>
      <point x="2049" y="67" type="curve" smooth="yes"/>
      <point x="1962" y="1085" type="line"/>
      <point x="1949" y="1086" type="line"/>
      <point x="1347" y="67" type="line" smooth="yes"/>
      <point x="1323" y="26"/>
      <point x="1287" y="2"/>
      <point x="1246" y="0" type="curve"/>
      <point x="1144" y="0" type="line"/>
      <point x="1103" y="2"/>
      <point x="1068" y="26"/>
      <point x="1044" y="67" type="curve" smooth="yes"/>
      <point x="467" y="1073" type="line" smooth="yes"/>
      <point x="467" y="1072"/>
      <point x="456" y="1068"/>
      <point x="456" y="1069" type="curve" smooth="yes"/>
      <point x="362" y="67" type="line"/>
      <point x="359" y="24"/>
      <point x="334" y="0"/>
      <point x="291" y="0" type="curve" smooth="yes"/>
    </contour>
  </outline>
</glyph>
<glyph name="W" format="1">
  <advance width="3291"/>
  <unicode hex="0057"/>
  <outline>
    <contour>
      <point x="874" y="0" type="line"/>
      <point x="834" y="3"/>
      <point x="796.686" y="24.7305"/>
      <point x="775" y="67" type="curve" smooth="yes"/>
      <point x="106" y="1371" type="line" smooth="yes"/>
      <point x="97" y="1387"/>
      <point x="93" y="1400"/>
      <point x="93" y="1410" type="curve" smooth="yes"/>
      <point x="93" y="1428"/>
      <point x="107" y="1438"/>
      <point x="134" y="1438" type="curve" smooth="yes"/>
      <point x="246" y="1438" type="line" smooth="yes"/>
      <point x="289" y="1438"/>
      <point x="330.771" y="1415.43"/>
      <point x="352" y="1371" type="curve" smooth="yes"/>
      <point x="922" y="178" type="line"/>
      <point x="1489" y="1371" type="line" smooth="yes"/>
      <point x="1510" y="1414"/>
      <point x="1548" y="1438"/>
      <point x="1586" y="1438" type="curve" smooth="yes"/>
      <point x="1701" y="1438" type="line" smooth="yes"/>
      <point x="1744" y="1438"/>
      <point x="1783" y="1414"/>
      <point x="1807" y="1371" type="curve" smooth="yes"/>
      <point x="2428" y="178" type="line"/>
      <point x="2944" y="1371" type="line" smooth="yes"/>
      <point x="2963" y="1414.92"/>
      <point x="3003" y="1438"/>
      <point x="3046" y="1438" type="curve" smooth="yes"/>
      <point x="3150" y="1438" type="line" smooth="yes"/>
      <point x="3179" y="1438"/>
      <point x="3193" y="1428"/>
      <point x="3193" y="1408" type="curve" smooth="yes"/>
      <point x="3193" y="1398"/>
      <point x="3189" y="1385"/>
      <point x="3182" y="1371" type="curve" smooth="yes"/>
      <point x="2569" y="67" type="line" smooth="yes"/>
      <point x="2549.4" y="25.3115"/>
      <point x="2516" y="3"/>
      <point x="2476" y="0" type="curve"/>
      <point x="2369" y="0" type="line"/>
      <point x="2330" y="3"/>
      <point x="2293" y="25"/>
      <point x="2271" y="67" type="curve" smooth="yes"/>
      <point x="1648" y="1267" type="line"/>
      <point x="1075" y="67" type="line" smooth="yes"/>
      <point x="1055" y="26"/>
      <point x="1021" y="3"/>
      <point x="981" y="0" type="curve"/>
    </contour>
  </outline>
</glyph>
<glyph name="backslash" format="1">
  <advance width="1079"/>
  <unicode hex="005C"/>
  <outline>
    <contour>
      <point x="808" y="-205" type="line" smooth="yes"/>
      <point x="786" y="-205"/>
      <point x="766" y="-191"/>
      <point x="758" y="-170" type="curve" smooth="yes"/>
      <point x="71" y="1612" type="line" smooth="yes"/>
      <point x="70" y="1615"/>
      <point x="69" y="1618"/>
      <point x="69" y="1621" type="curve" smooth="yes"/>
      <point x="69" y="1635"/>
      <point x="80" y="1647"/>
      <point x="95" y="1647" type="curve" smooth="yes"/>
      <point x="249" y="1647" type="line" smooth="yes"/>
      <point x="271" y="1647"/>
      <point x="291" y="1633"/>
      <point x="299" y="1612" type="curve" smooth="yes"/>
      <point x="986" y="-170" type="line" smooth="yes"/>
      <point x="987" y="-173"/>
      <point x="988" y="-176"/>
      <point x="988" y="-179" type="curve" smooth="yes"/>
      <point x="988" y="-193"/>
      <point x="977" y="-205"/>
      <point x="962" y="-205" type="curve" smooth="yes"/>
    </contour>
  </outline>
</glyph>
<glyph name="bracketright" format="1">
  <advance width="991"/>
  <unicode hex="005D"/>
  <outline>
    <contour>
      <point x="193" y="-62" type="line" smooth="yes"/>
      <point x="150" y="-62"/>
      <point x="126" y="-48"/>
      <point x="126" y="-5" type="curve" smooth="yes"/>
      <point x="126" y="50" type="line" smooth="yes"/>
      <point x="126" y="93"/>
      <point x="150" y="106"/>
      <point x="193" y="106" type="curve" smooth="yes"/>
      <point x="587" y="106" type="line" smooth="yes"/>
      <point x="607" y="106"/>
      <point x="614" y="113"/>
      <point x="614" y="133" type="curve" smooth="yes"/>
      <point x="614" y="1330" type="line" smooth="yes"/>
      <point x="614" y="1350"/>
      <point x="607" y="1356"/>
      <point x="587" y="1356" type="curve" smooth="yes"/>
      <point x="193" y="1356" type="line" smooth="yes"/>
      <point x="150" y="1356"/>
      <point x="126" y="1370"/>
      <point x="126" y="1413" type="curve" smooth="yes"/>
      <point x="126" y="1457" type="line" smooth="yes"/>
      <point x="126" y="1500"/>
      <point x="150" y="1514"/>
      <point x="193" y="1514" type="curve" smooth="yes"/>
      <point x="754" y="1514" type="line" smooth="yes"/>
      <point x="797" y="1514"/>
      <point x="831" y="1480"/>
      <point x="831" y="1437" type="curve" smooth="yes"/>
      <point x="831" y="16" type="line" smooth="yes"/>
      <point x="831" y="-28"/>
      <point x="797" y="-62"/>
      <point x="754" y="-62" type="curve" smooth="yes"/>
    </contour>
  </outline>
</glyph>
<glyph name="grave" format="1">
  <advance width="1745"/>
  <unicode hex="0060"/>
  <outline>
    <contour>
      <point x="847" y="1174" type="line" smooth="yes"/>
      <point x="818" y="1174"/>
      <point x="801" y="1204"/>
      <point x="792" y="1218" type="curve" smooth="yes"/>
      <point x="579" y="1542" type="line" smooth="yes"/>
      <point x="567" y="1559"/>
      <point x="561" y="1572"/>
      <point x="561" y="1580" type="curve" smooth="yes"/>
      <point x="561" y="1591"/>
      <point x="573" y="1596"/>
      <point x="599" y="1596" type="curve" smooth="yes"/>
      <point x="769" y="1595" type="line" smooth="yes"/>
      <point x="792" y="1595"/>
      <point x="804" y="1592"/>
      <point x="820" y="1577" type="curve"/>
      <point x="828" y="1566"/>
      <point x="831" y="1550"/>
      <point x="834" y="1539" type="curve"/>
      <point x="888" y="1211" type="line" smooth="yes"/>
      <point x="890" y="1203"/>
      <point x="890" y="1196"/>
      <point x="890" y="1191" type="curve" smooth="yes"/>
      <point x="890" y="1176"/>
      <point x="884" y="1174"/>
      <point x="877" y="1174" type="curve" smooth="yes"/>
      <point x="874" y="1174" type="line" smooth="yes"/>
    </contour>
  </outline>
</glyph>
<glyph name="c" format="1">
  <advance width="1538"/>
  <unicode hex="0063"/>
  <outline>
    <contour>
      <point x="872" y="-41" type="curve" smooth="yes"/>
      <point x="548" y="-41"/>
      <point x="127" y="106"/>
      <point x="127" y="504" type="curve" smooth="yes"/>
      <point x="127" y="912"/>
      <point x="546" y="1053"/>
      <point x="872" y="1053" type="curve" smooth="yes"/>
      <point x="1032" y="1053"/>
      <point x="1230" y="1015"/>
      <point x="1367" y="932" type="curve"/>
      <point x="1388" y="918"/>
      <point x="1396" y="904"/>
      <point x="1396" y="890" type="curve" smooth="yes"/>
      <point x="1396" y="884"/>
      <point x="1395" y="878"/>
      <point x="1392" y="872" type="curve" smooth="yes"/>
      <point x="1366" y="813" type="line" smooth="yes"/>
      <point x="1358" y="794"/>
      <point x="1348" y="788"/>
      <point x="1337" y="788" type="curve" smooth="yes"/>
      <point x="1322" y="788"/>
      <point x="1306" y="799"/>
      <point x="1292" y="806" type="curve" smooth="yes"/>
      <point x="1211" y="850"/>
      <point x="1072" y="904"/>
      <point x="869" y="904" type="curve" smooth="yes"/>
      <point x="626" y="904"/>
      <point x="345" y="788"/>
      <point x="346" y="504" type="curve"/>
      <point x="345" y="244"/>
      <point x="601" y="106"/>
      <point x="882" y="106" type="curve" smooth="yes"/>
      <point x="1052" y="106"/>
      <point x="1204" y="170"/>
      <point x="1270" y="201" type="curve" smooth="yes"/>
      <point x="1286" y="209"/>
      <point x="1299" y="212"/>
      <point x="1310" y="212" type="curve" smooth="yes"/>
      <point x="1326" y="212"/>
      <point x="1336" y="204"/>
      <point x="1340" y="192" type="curve" smooth="yes"/>
      <point x="1342" y="185"/>
      <point x="1369" y="133"/>
      <point x="1369" y="106" type="curve" smooth="yes"/>
      <point x="1369" y="91"/>
      <point x="1361" y="79"/>
      <point x="1331" y="63" type="curve" smooth="yes"/>
      <point x="1205" y="-3"/>
      <point x="1011" y="-41"/>
    </contour>
  </outline>
</glyph>
<glyph name="r" format="1">
  <advance width="1011"/>
  <unicode hex="0072"/>
  <outline>
    <contour>
      <point x="219" y="0" type="line" smooth="yes"/>
      <point x="176" y="0"/>
      <point x="152" y="24"/>
      <point x="152" y="67" type="curve" smooth="yes"/>
      <point x="152" y="929" type="line" smooth="yes"/>
      <point x="152" y="972"/>
      <point x="166" y="1006"/>
      <point x="209" y="1006" type="curve" smooth="yes"/>
      <point x="225" y="1006" type="line" smooth="yes"/>
      <point x="272" y="1006"/>
      <point x="294" y="992"/>
      <point x="305" y="942" type="curve" smooth="yes"/>
      <point x="331" y="833" type="line" smooth="yes"/>
      <point x="333" y="824"/>
      <point x="338" y="811"/>
      <point x="346" y="811" type="curve" smooth="yes"/>
      <point x="354" y="811"/>
      <point x="361" y="827"/>
      <point x="366" y="834" type="curve" smooth="yes"/>
      <point x="438" y="935"/>
      <point x="600" y="1052"/>
      <point x="788" y="1052" type="curve" smooth="yes"/>
      <point x="835" y="1052" type="line" smooth="yes"/>
      <point x="876" y="1052"/>
      <point x="900" y="1028"/>
      <point x="900" y="985" type="curve" smooth="yes"/>
      <point x="900" y="930" type="line" smooth="yes"/>
      <point x="900" y="886"/>
      <point x="875" y="867"/>
      <point x="832" y="867" type="curve" smooth="yes"/>
      <point x="749" y="867" type="line" smooth="yes"/>
      <point x="553" y="867"/>
      <point x="371" y="744"/>
      <point x="371" y="610" type="curve" smooth="yes"/>
      <point x="371" y="67" type="line" smooth="yes"/>
      <point x="371" y="24"/>
      <point x="348" y="0"/>
      <point x="305" y="0" type="curve" smooth="yes"/>
    </contour>
  </outline>
</glyph>
<glyph name="t" format="1">
  <advance width="1171"/>
  <unicode hex="0074"/>
  <outline>
    <contour>
      <point x="707" y="-41" type="curve" smooth="yes"/>
      <point x="425" y="-41"/>
      <point x="305" y="109"/>
      <point x="305" y="331" type="curve" smooth="yes"/>
      <point x="305" y="823" type="line" smooth="yes"/>
      <point x="305" y="843"/>
      <point x="298" y="850"/>
      <point x="278" y="850" type="curve" smooth="yes"/>
      <point x="148" y="850" type="line" smooth="yes"/>
      <point x="105" y="850"/>
      <point x="81" y="873"/>
      <point x="81" y="916" type="curve" smooth="yes"/>
      <point x="81" y="939" type="line" smooth="yes"/>
      <point x="81" y="982"/>
      <point x="105" y="1006"/>
      <point x="148" y="1006" type="curve" smooth="yes"/>
      <point x="278" y="1006" type="line" smooth="yes"/>
      <point x="298" y="1006"/>
      <point x="305" y="1013"/>
      <point x="305" y="1033" type="curve"/>
      <point x="324" y="1408" type="line"/>
      <point x="333" y="1450"/>
      <point x="348" y="1475"/>
      <point x="391" y="1475" type="curve" smooth="yes"/>
      <point x="456" y="1475" type="line" smooth="yes"/>
      <point x="499" y="1475"/>
      <point x="522" y="1451"/>
      <point x="522" y="1408" type="curve" smooth="yes"/>
      <point x="522" y="1033" type="line" smooth="yes"/>
      <point x="522" y="1013"/>
      <point x="529" y="1006"/>
      <point x="549" y="1006" type="curve" smooth="yes"/>
      <point x="932" y="1006" type="line" smooth="yes"/>
      <point x="975" y="1006"/>
      <point x="998" y="982"/>
      <point x="998" y="939" type="curve" smooth="yes"/>
      <point x="998" y="916" type="line" smooth="yes"/>
      <point x="998" y="873"/>
      <point x="975" y="850"/>
      <point x="932" y="850" type="curve" smooth="yes"/>
      <point x="549" y="850" type="line" smooth="yes"/>
      <point x="529" y="850"/>
      <point x="522" y="843"/>
      <point x="522" y="823" type="curve" smooth="yes"/>
      <point x="522" y="301" type="line" smooth="yes"/>
      <point x="522" y="163"/>
      <point x="596" y="107"/>
      <point x="748" y="107" type="curve" smooth="yes"/>
      <point x="816" y="107"/>
      <point x="890" y="124"/>
      <point x="951" y="144" type="curve" smooth="yes"/>
      <point x="965" y="149"/>
      <point x="977" y="151"/>
      <point x="986" y="151" type="curve" smooth="yes"/>
      <point x="1012" y="151"/>
      <point x="1018" y="132"/>
      <point x="1025" y="106" type="curve" smooth="yes"/>
      <point x="1034" y="78" type="line" smooth="yes"/>
      <point x="1036" y="70"/>
      <point x="1037" y="63"/>
      <point x="1037" y="57" type="curve" smooth="yes"/>
      <point x="1037" y="30"/>
      <point x="1017" y="18"/>
      <point x="984" y="5" type="curve" smooth="yes"/>
      <point x="905" y="-26"/>
      <point x="816" y="-41"/>
    </contour>
  </outline>
</glyph>
<glyph name="u" format="1">
  <advance width="1530"/>
  <unicode hex="0075"/>
  <outline>
    <contour>
      <point x="659" y="-47" type="curve" smooth="yes"/>
      <point x="349" y="-47"/>
      <point x="145" y="118"/>
      <point x="145" y="453" type="curve" smooth="yes"/>
      <point x="145" y="939" type="line" smooth="yes"/>
      <point x="145" y="982"/>
      <point x="169" y="1006"/>
      <point x="212" y="1006" type="curve" smooth="yes"/>
      <point x="296" y="1006" type="line" smooth="yes"/>
      <point x="339" y="1006"/>
      <point x="363" y="982"/>
      <point x="363" y="939" type="curve" smooth="yes"/>
      <point x="363" y="397" type="line" smooth="yes"/>
      <point x="363" y="170"/>
      <point x="513" y="107"/>
      <point x="699" y="107" type="curve" smooth="yes"/>
      <point x="896" y="107"/>
      <point x="1160" y="264"/>
      <point x="1160" y="397" type="curve" smooth="yes"/>
      <point x="1160" y="939" type="line" smooth="yes"/>
      <point x="1160" y="982"/>
      <point x="1183" y="1006"/>
      <point x="1226" y="1006" type="curve" smooth="yes"/>
      <point x="1312" y="1006" type="line" smooth="yes"/>
      <point x="1355" y="1006"/>
      <point x="1379" y="982"/>
      <point x="1379" y="939" type="curve" smooth="yes"/>
      <point x="1379" y="77" type="line" smooth="yes"/>
      <point x="1379" y="34"/>
      <point x="1365" y="0"/>
      <point x="1322" y="0" type="curve" smooth="yes"/>
      <point x="1305" y="0" type="line" smooth="yes"/>
      <point x="1258" y="0"/>
      <point x="1236" y="14"/>
      <point x="1226" y="64" type="curve" smooth="yes"/>
      <point x="1200" y="182" type="line"/>
      <point x="1195" y="190"/>
      <point x="1193" y="195"/>
      <point x="1185" y="195" type="curve" smooth="yes"/>
      <point x="1177" y="195"/>
      <point x="1171" y="186"/>
      <point x="1165" y="179" type="curve" smooth="yes"/>
      <point x="1035" y="18"/>
      <point x="848" y="-47"/>
    </contour>
  </outline>
</glyph>
<glyph name="AE" format="1">
  <advance width="2128"/>
  <unicode hex="00C6"/>
  <outline>
    <contour>
      <point x="150" y="0" type="line" smooth="yes"/>
      <point x="121" y="0"/>
      <point x="105" y="11"/>
      <point x="105" y="32" type="curve" smooth="yes"/>
      <point x="105" y="42"/>
      <point x="108" y="53"/>
      <point x="115" y="67" type="curve" smooth="yes"/>
      <point x="811" y="1371" type="line"/>
      <point x="831" y="1412"/>
      <point x="863" y="1435"/>
      <point x="903" y="1438" type="curve"/>
      <point x="1926" y="1438" type="line" smooth="yes"/>
      <point x="1969" y="1438"/>
      <point x="1993" y="1404"/>
      <point x="1993" y="1361" type="curve" smooth="yes"/>
      <point x="1993" y="1360" type="line" smooth="yes"/>
      <point x="1993" y="1317"/>
      <point x="1969" y="1283"/>
      <point x="1926" y="1283" type="curve" smooth="yes"/>
      <point x="1197" y="1283" type="line" smooth="yes"/>
      <point x="1177" y="1283"/>
      <point x="1170" y="1278"/>
      <point x="1170" y="1258" type="curve" smooth="yes"/>
      <point x="1170" y="848" type="line"/>
      <point x="1170" y="848"/>
      <point x="1184" y="822"/>
      <point x="1183" y="822" type="curve" smooth="yes"/>
      <point x="1814" y="822" type="line" smooth="yes"/>
      <point x="1857" y="822"/>
      <point x="1880" y="788"/>
      <point x="1880" y="745" type="curve" smooth="yes"/>
      <point x="1880" y="742" type="line" smooth="yes"/>
      <point x="1880" y="699"/>
      <point x="1857" y="665"/>
      <point x="1814" y="665" type="curve" smooth="yes"/>
      <point x="1189" y="665" type="line"/>
      <point x="1170" y="648" type="line"/>
      <point x="1170" y="172" type="line"/>
      <point x="1170" y="172"/>
      <point x="1184" y="155"/>
      <point x="1183" y="155" type="curve" smooth="yes"/>
      <point x="1924" y="155" type="line" smooth="yes"/>
      <point x="1967" y="155"/>
      <point x="1991" y="122"/>
      <point x="1991" y="79" type="curve" smooth="yes"/>
      <point x="1991" y="77" type="line" smooth="yes"/>
      <point x="1991" y="34"/>
      <point x="1967" y="0"/>
      <point x="1924" y="0" type="curve" smooth="yes"/>
      <point x="1020" y="0" type="line" smooth="yes"/>
      <point x="977" y="0"/>
      <point x="954" y="24"/>
      <point x="954" y="67" type="curve" smooth="yes"/>
      <point x="954" y="342" type="line"/>
      <point x="485" y="342" type="line"/>
      <point x="476" y="336" type="line"/>
      <point x="342" y="67" type="line"/>
      <point x="322" y="24"/>
      <point x="286" y="0"/>
      <point x="243" y="0" type="curve" smooth="yes"/>
    </contour>
    <contour>
      <point x="550" y="471" type="curve" smooth="yes"/>
      <point x="970" y="471" type="line"/>
      <point x="970" y="1317" type="line"/>
      <point x="952" y="1284"/>
      <point x="951" y="1283"/>
      <point x="951" y="1282" type="curve" smooth="yes"/>
      <point x="913" y="1210"/>
      <point x="578" y="553"/>
      <point x="556" y="497" type="curve" smooth="yes"/>
      <point x="550" y="482"/>
      <point x="548" y="476"/>
      <point x="548" y="473" type="curve" smooth="yes"/>
      <point x="548" y="471"/>
      <point x="549" y="471"/>
    </contour>
  </outline>
</glyph>
<glyph name="Eth" format="1">
  <advance width="2208"/>
  <unicode hex="00D0"/>
  <outline>
    <contour>
      <point x="402" y="155" type="curve"/>
      <point x="1141" y="155" type="line" smooth="yes"/>
      <point x="1534" y="155"/>
      <point x="1858" y="227"/>
      <point x="1858" y="721" type="curve" smooth="yes"/>
      <point x="1858" y="1142"/>
      <point x="1548" y="1283"/>
      <point x="1140" y="1283" type="curve" smooth="yes"/>
      <point x="396" y="1283" type="line"/>
      <point x="396" y="1283"/>
      <point x="375" y="1265"/>
      <point x="375" y="1266" type="curve" smooth="yes"/>
      <point x="375" y="831" type="line"/>
      <point x="740" y="831" type="line" smooth="yes"/>
      <point x="783" y="831"/>
      <point x="796" y="807"/>
      <point x="796" y="764" type="curve" smooth="yes"/>
      <point x="796" y="744" type="line" smooth="yes"/>
      <point x="796" y="701"/>
      <point x="783" y="677"/>
      <point x="740" y="677" type="curve" smooth="yes"/>
      <point x="375" y="677" type="line"/>
      <point x="375" y="176" type="line" smooth="yes"/>
      <point x="375" y="177"/>
      <point x="402" y="155"/>
    </contour>
    <contour>
      <point x="227" y="0" type="line" smooth="yes"/>
      <point x="184" y="0"/>
      <point x="160" y="24"/>
      <point x="160" y="67" type="curve" smooth="yes"/>
      <point x="160" y="677" type="line"/>
      <point x="58" y="677" type="line" smooth="yes"/>
      <point x="15" y="677"/>
      <point x="1" y="701"/>
      <point x="1" y="744" type="curve" smooth="yes"/>
      <point x="1" y="764" type="line" smooth="yes"/>
      <point x="1" y="807"/>
      <point x="15" y="831"/>
      <point x="58" y="831" type="curve" smooth="yes"/>
      <point x="160" y="831" type="line"/>
      <point x="160" y="1371" type="line" smooth="yes"/>
      <point x="160" y="1414"/>
      <point x="184" y="1438"/>
      <point x="227" y="1438" type="curve" smooth="yes"/>
      <point x="1134" y="1438" type="line" smooth="yes"/>
      <point x="1593" y="1438"/>
      <point x="2074" y="1294"/>
      <point x="2074" y="721" type="curve" smooth="yes"/>
      <point x="2074" y="104"/>
      <point x="1594" y="0"/>
      <point x="1137" y="0" type="curve" smooth="yes"/>
    </contour>
  </outline>
</glyph>
<glyph name="thorn" format="1">
  <advance width="1671"/>
  <unicode hex="00FE"/>
  <outline>
    <contour>
      <point x="228" y="-430" type="line" smooth="yes"/>
      <point x="185" y="-430"/>
      <point x="161" y="-406"/>
      <point x="161" y="-363" type="curve" smooth="yes"/>
      <point x="161" y="1371" type="line" smooth="yes"/>
      <point x="161" y="1414"/>
      <point x="170" y="1438"/>
      <point x="213" y="1438" type="curve" smooth="yes"/>
      <point x="309" y="1438" type="line" smooth="yes"/>
      <point x="339" y="1438"/>
      <point x="356" y="1429"/>
      <point x="356" y="1360" type="curve" smooth="yes"/>
      <point x="356" y="1341"/>
      <point x="358" y="1009"/>
      <point x="358" y="880" type="curve" smooth="yes"/>
      <point x="358" y="861"/>
      <point x="360" y="835"/>
      <point x="370" y="835" type="curve" smooth="yes"/>
      <point x="372" y="835"/>
      <point x="375" y="836"/>
      <point x="379" y="841" type="curve" smooth="yes"/>
      <point x="501" y="980"/>
      <point x="701" y="1052"/>
      <point x="885" y="1052" type="curve" smooth="yes"/>
      <point x="1177" y="1052"/>
      <point x="1542" y="905"/>
      <point x="1542" y="507" type="curve" smooth="yes"/>
      <point x="1542" y="98"/>
      <point x="1189" y="-42"/>
      <point x="865" y="-42" type="curve" smooth="yes"/>
      <point x="668" y="-42"/>
      <point x="498" y="28"/>
      <point x="390" y="158" type="curve" smooth="yes"/>
      <point x="388" y="161"/>
      <point x="385" y="163"/>
      <point x="383" y="163" type="curve" smooth="yes"/>
      <point x="381" y="163"/>
      <point x="380" y="162"/>
      <point x="380" y="156" type="curve" smooth="yes"/>
      <point x="380" y="-363" type="line" smooth="yes"/>
      <point x="380" y="-406"/>
      <point x="356" y="-430"/>
      <point x="313" y="-430" type="curve" smooth="yes"/>
    </contour>
    <contour>
      <point x="853" y="107" type="curve" smooth="yes"/>
      <point x="1092" y="107"/>
      <point x="1324" y="220"/>
      <point x="1324" y="507" type="curve" smooth="yes"/>
      <point x="1324" y="772"/>
      <point x="1109" y="904"/>
      <point x="853" y="904" type="curve" smooth="yes"/>
      <point x="594" y="904"/>
      <point x="380" y="769"/>
      <point x="380" y="509" type="curve" smooth="yes"/>
      <point x="380" y="239"/>
      <point x="608" y="107"/>
    </contour>
  </outline>
</glyph>
<glyph name="hbar" format="1">
  <advance width="1534"/>
  <unicode hex="0127"/>
  <outline>
    <contour>
      <point x="227" y="0" type="line" smooth="yes"/>
      <point x="184" y="0"/>
      <point x="160" y="24"/>
      <point x="160" y="67" type="curve" smooth="yes"/>
      <point x="160" y="1160" type="line"/>
      <point x="57" y="1160" type="line" smooth="yes"/>
      <point x="14" y="1160"/>
      <point x="0" y="1184"/>
      <point x="0" y="1227" type="curve" smooth="yes"/>
      <point x="0" y="1249" type="line" smooth="yes"/>
      <point x="0" y="1292"/>
      <point x="14" y="1316"/>
      <point x="57" y="1316" type="curve" smooth="yes"/>
      <point x="160" y="1316" type="line"/>
      <point x="160" y="1371" type="line" smooth="yes"/>
      <point x="160" y="1414"/>
      <point x="184" y="1438"/>
      <point x="227" y="1438" type="curve" smooth="yes"/>
      <point x="312" y="1438" type="line" smooth="yes"/>
      <point x="355" y="1438"/>
      <point x="379" y="1414"/>
      <point x="379" y="1371" type="curve" smooth="yes"/>
      <point x="379" y="1316" type="line"/>
      <point x="639" y="1316" type="line" smooth="yes"/>
      <point x="682" y="1316"/>
      <point x="696" y="1292"/>
      <point x="696" y="1249" type="curve" smooth="yes"/>
      <point x="696" y="1227" type="line" smooth="yes"/>
      <point x="696" y="1184"/>
      <point x="682" y="1160"/>
      <point x="639" y="1160" type="curve" smooth="yes"/>
      <point x="379" y="1160" type="line"/>
      <point x="379" y="852" type="line"/>
      <point x="388" y="846" type="line"/>
      <point x="517" y="993"/>
      <point x="694" y="1052"/>
      <point x="875" y="1052" type="curve" smooth="yes"/>
      <point x="1186" y="1052"/>
      <point x="1391" y="889"/>
      <point x="1391" y="553" type="curve" smooth="yes"/>
      <point x="1391" y="67" type="line" smooth="yes"/>
      <point x="1391" y="24"/>
      <point x="1367" y="0"/>
      <point x="1324" y="0" type="curve" smooth="yes"/>
      <point x="1240" y="0" type="line" smooth="yes"/>
      <point x="1197" y="0"/>
      <point x="1173" y="24"/>
      <point x="1173" y="67" type="curve" smooth="yes"/>
      <point x="1173" y="609" type="line" smooth="yes"/>
      <point x="1173" y="836"/>
      <point x="1023" y="904"/>
      <point x="837" y="904" type="curve" smooth="yes"/>
      <point x="640" y="904"/>
      <point x="379" y="742"/>
      <point x="379" y="609" type="curve" smooth="yes"/>
      <point x="379" y="67" type="line" smooth="yes"/>
      <point x="379" y="24"/>
      <point x="356" y="0"/>
      <point x="313" y="0" type="curve" smooth="yes"/>
    </contour>
  </outline>
</glyph>
<glyph name="breve" format="1">
  <advance width="1176"/>
  <unicode hex="02D8"/>
  <outline>
    <contour>
      <point x="641" y="1185" type="curve" smooth="yes"/>
      <point x="475" y="1185"/>
      <point x="323" y="1259"/>
      <point x="323" y="1498" type="curve"/>
      <point x="513" y="1498" type="line"/>
      <point x="513" y="1387"/>
      <point x="560" y="1330"/>
      <point x="641" y="1330" type="curve" smooth="yes"/>
      <point x="721" y="1330"/>
      <point x="769" y="1380"/>
      <point x="769" y="1498" type="curve"/>
      <point x="959" y="1498" type="line"/>
      <point x="959" y="1259"/>
      <point x="806" y="1185"/>
    </contour>
  </outline>
</glyph>
<glyph name="tilde" format="1">
  <advance width="1644"/>
  <unicode hex="02DC"/>
  <outline>
    <contour>
      <point x="645" y="1596" type="curve" smooth="yes"/>
      <point x="585" y="1596"/>
      <point x="517" y="1611"/>
      <point x="428" y="1666" type="curve" smooth="yes"/>
      <point x="407" y="1678"/>
      <point x="394" y="1695"/>
      <point x="394" y="1713" type="curve" smooth="yes"/>
      <point x="394" y="1718"/>
      <point x="395" y="1723"/>
      <point x="397" y="1729" type="curve" smooth="yes"/>
      <point x="423" y="1786" type="line" smooth="yes"/>
      <point x="432" y="1808"/>
      <point x="443" y="1819"/>
      <point x="459" y="1819" type="curve" smooth="yes"/>
      <point x="467" y="1819"/>
      <point x="476" y="1816"/>
      <point x="486" y="1811" type="curve" smooth="yes"/>
      <point x="555" y="1775"/>
      <point x="606" y="1763"/>
      <point x="650" y="1763" type="curve" smooth="yes"/>
      <point x="784" y="1763"/>
      <point x="903" y="1846"/>
      <point x="1040" y="1846" type="curve" smooth="yes"/>
      <point x="1106" y="1846"/>
      <point x="1178" y="1834"/>
      <point x="1258" y="1793" type="curve" smooth="yes"/>
      <point x="1280" y="1782"/>
      <point x="1294" y="1771"/>
      <point x="1294" y="1750" type="curve" smooth="yes"/>
      <point x="1294" y="1733"/>
      <point x="1275" y="1698"/>
      <point x="1270" y="1687" type="curve" smooth="yes"/>
      <point x="1263" y="1672"/>
      <point x="1254" y="1639"/>
      <point x="1230" y="1639" type="curve" smooth="yes"/>
      <point x="1224" y="1639"/>
      <point x="1215" y="1639"/>
      <point x="1206" y="1644" type="curve" smooth="yes"/>
      <point x="1155" y="1674"/>
      <point x="1099" y="1683"/>
      <point x="1041" y="1683" type="curve" smooth="yes"/>
      <point x="912" y="1683"/>
      <point x="772" y="1596"/>
    </contour>
  </outline>
</glyph>
<glyph name="quotesinglbase" format="1">
  <advance width="501"/>
  <unicode hex="201A"/>
  <outline>
    <contour>
      <point x="253" y="-308" type="line" smooth="yes"/>
      <point x="210" y="-308"/>
      <point x="213" y="-284"/>
      <point x="207" y="-241" type="curve" smooth="yes"/>
      <point x="141" y="248" type="line" smooth="yes"/>
      <point x="140" y="252"/>
      <point x="140" y="257"/>
      <point x="140" y="261" type="curve" smooth="yes"/>
      <point x="140" y="300"/>
      <point x="168" y="336"/>
      <point x="207" y="336" type="curve" smooth="yes"/>
      <point x="294" y="336" type="line" smooth="yes"/>
      <point x="334" y="336"/>
      <point x="362" y="297"/>
      <point x="362" y="257" type="curve" smooth="yes"/>
      <point x="362" y="254"/>
      <point x="361" y="250"/>
      <point x="361" y="247" type="curve" smooth="yes"/>
      <point x="302" y="-241" type="line" smooth="yes"/>
      <point x="297" y="-284"/>
      <point x="299" y="-308"/>
      <point x="256" y="-308" type="curve" smooth="yes"/>
    </contour>
  </outline>
</glyph>
<glyph name="daggerdbl" format="1">
  <advance width="1366"/>
  <unicode hex="2021"/>
  <outline>
    <contour>
      <point x="654" y="0" type="line" smooth="yes"/>
      <point x="611" y="0"/>
      <point x="582" y="29"/>
      <point x="582" y="72" type="curve" smooth="yes"/>
      <point x="582" y="558" type="line"/>
      <point x="193" y="558" type="line" smooth="yes"/>
      <point x="162" y="558"/>
      <point x="141" y="583"/>
      <point x="141" y="614" type="curve" smooth="yes"/>
      <point x="141" y="662" type="line" smooth="yes"/>
      <point x="141" y="698"/>
      <point x="162" y="726"/>
      <point x="193" y="726" type="curve" smooth="yes"/>
      <point x="582" y="726" type="line"/>
      <point x="582" y="1284" type="line" smooth="yes"/>
      <point x="582" y="1304"/>
      <point x="570" y="1315"/>
      <point x="550" y="1315" type="curve" smooth="yes"/>
      <point x="193" y="1315" type="line" smooth="yes"/>
      <point x="162" y="1315"/>
      <point x="141" y="1340"/>
      <point x="141" y="1371" type="curve" smooth="yes"/>
      <point x="141" y="1419" type="line" smooth="yes"/>
      <point x="141" y="1455"/>
      <point x="162" y="1483"/>
      <point x="193" y="1483" type="curve" smooth="yes"/>
      <point x="583" y="1483" type="line"/>
      <point x="583" y="1878" type="line" smooth="yes"/>
      <point x="583" y="1921"/>
      <point x="612" y="1950"/>
      <point x="655" y="1950" type="curve" smooth="yes"/>
      <point x="714" y="1950" type="line" smooth="yes"/>
      <point x="757" y="1950"/>
      <point x="786" y="1921"/>
      <point x="786" y="1878" type="curve" smooth="yes"/>
      <point x="786" y="1483" type="line"/>
      <point x="1172" y="1483" type="line" smooth="yes"/>
      <point x="1203" y="1483"/>
      <point x="1224" y="1455"/>
      <point x="1224" y="1419" type="curve" smooth="yes"/>
      <point x="1224" y="1371" type="line" smooth="yes"/>
      <point x="1224" y="1340"/>
      <point x="1203" y="1315"/>
      <point x="1172" y="1315" type="curve" smooth="yes"/>
      <point x="817" y="1315" type="line" smooth="yes"/>
      <point x="797" y="1315"/>
      <point x="785" y="1304"/>
      <point x="785" y="1284" type="curve" smooth="yes"/>
      <point x="785" y="726" type="line"/>
      <point x="1172" y="726" type="line" smooth="yes"/>
      <point x="1203" y="726"/>
      <point x="1224" y="698"/>
      <point x="1224" y="662" type="curve" smooth="yes"/>
      <point x="1224" y="614" type="line" smooth="yes"/>
      <point x="1224" y="583"/>
      <point x="1203" y="558"/>
      <point x="1172" y="558" type="curve" smooth="yes"/>
      <point x="785" y="558" type="line"/>
      <point x="785" y="72" type="line" smooth="yes"/>
      <point x="785" y="29"/>
      <point x="756" y="0"/>
      <point x="713" y="0" type="curve" smooth="yes"/>
    </contour>
  </outline>
</glyph>
<glyph name="guilsinglright" format="1">
  <advance width="707"/>
  <unicode hex="203A"/>
  <outline>
    <contour>
      <point x="113" y="251" type="curve" smooth="yes"/>
      <point x="91" y="251"/>
      <point x="72" y="268"/>
      <point x="72" y="292" type="curve" smooth="yes"/>
      <point x="72" y="366" type="line" smooth="yes"/>
      <point x="72" y="407"/>
      <point x="101" y="423"/>
      <point x="134" y="445" type="curve"/>
      <point x="454" y="677" type="line" smooth="yes"/>
      <point x="460" y="681"/>
      <point x="463" y="686"/>
      <point x="463" y="691" type="curve" smooth="yes"/>
      <point x="463" y="695"/>
      <point x="460" y="700"/>
      <point x="454" y="704" type="curve" smooth="yes"/>
      <point x="134" y="939" type="line"/>
      <point x="100" y="959"/>
      <point x="72" y="976"/>
      <point x="72" y="1018" type="curve" smooth="yes"/>
      <point x="72" y="1107" type="line" smooth="yes"/>
      <point x="72" y="1132"/>
      <point x="91" y="1148"/>
      <point x="111" y="1148" type="curve" smooth="yes"/>
      <point x="117" y="1148"/>
      <point x="124" y="1145"/>
      <point x="130" y="1144" type="curve"/>
      <point x="581" y="802" type="line" smooth="yes"/>
      <point x="613" y="778"/>
      <point x="640" y="761"/>
      <point x="640" y="720" type="curve" smooth="yes"/>
      <point x="640" y="664" type="line" smooth="yes"/>
      <point x="640" y="623"/>
      <point x="613" y="607"/>
      <point x="580" y="582" type="curve" smooth="yes"/>
      <point x="131" y="255" type="line"/>
      <point x="125" y="253"/>
      <point x="119" y="251"/>
    </contour>
  </outline>
</glyph>
<glyph name="notequal" format="1">
  <advance width="943"/>
  <unicode hex="2260"/>
  <outline>
    <contour>
      <point x="221" y="-69" type="line" smooth="yes"/>
      <point x="203" y="-69"/>
      <point x="202" y="-52"/>
      <point x="208" y="-35" type="curve" smooth="yes"/>
      <point x="326" y="314" type="line"/>
      <point x="196" y="314" type="line" smooth="yes"/>
      <point x="153" y="314"/>
      <point x="140" y="328"/>
      <point x="140" y="371" type="curve" smooth="yes"/>
      <point x="140" y="414" type="line" smooth="yes"/>
      <point x="140" y="457"/>
      <point x="153" y="470"/>
      <point x="196" y="470" type="curve" smooth="yes"/>
      <point x="379" y="470" type="line"/>
      <point x="442" y="657" type="line"/>
      <point x="206" y="657" type="line" smooth="yes"/>
      <point x="163" y="657"/>
      <point x="150" y="670"/>
      <point x="150" y="713" type="curve" smooth="yes"/>
      <point x="150" y="756" type="line" smooth="yes"/>
      <point x="150" y="799"/>
      <point x="163" y="812"/>
      <point x="206" y="812" type="curve" smooth="yes"/>
      <point x="494" y="812" type="line"/>
      <point x="618" y="1181" type="line" smooth="yes"/>
      <point x="626" y="1202"/>
      <point x="630" y="1211"/>
      <point x="657" y="1211" type="curve"/>
      <point x="657" y="1210"/>
      <point x="709" y="1211"/>
      <point x="709" y="1211" type="curve" smooth="yes"/>
      <point x="727" y="1211"/>
      <point x="730" y="1192"/>
      <point x="723" y="1176" type="curve" smooth="yes"/>
      <point x="723" y="1176"/>
      <point x="670" y="1016"/>
      <point x="603" y="812" type="curve"/>
      <point x="746" y="812" type="line" smooth="yes"/>
      <point x="789" y="812"/>
      <point x="803" y="799"/>
      <point x="803" y="756" type="curve" smooth="yes"/>
      <point x="803" y="713" type="line" smooth="yes"/>
      <point x="803" y="670"/>
      <point x="789" y="657"/>
      <point x="746" y="657" type="curve" smooth="yes"/>
      <point x="551" y="657" type="line"/>
      <point x="531" y="595"/>
      <point x="510" y="532"/>
      <point x="490" y="470" type="curve"/>
      <point x="736" y="470" type="line" smooth="yes"/>
      <point x="779" y="470"/>
      <point x="793" y="457"/>
      <point x="793" y="414" type="curve" smooth="yes"/>
      <point x="793" y="371" type="line" smooth="yes"/>
      <point x="793" y="328"/>
      <point x="779" y="314"/>
      <point x="736" y="314" type="curve" smooth="yes"/>
      <point x="438" y="314" type="line"/>
      <point x="373" y="118"/>
      <point x="323" y="-34"/>
      <point x="323" y="-34" type="curve" smooth="yes"/>
      <point x="312" y="-67"/>
      <point x="301" y="-69"/>
      <point x="281" y="-69" type="curve" smooth="yes"/>
      <point x="273" y="-69" type="line" smooth="yes"/>
    </contour>
  </outline>
</glyph>
